<svg width="798" height="717" viewBox="0 0 798 717" fill="none" xmlns="http://www.w3.org/2000/svg">
<path d="M551.229 573.117L551.403 573.164L551.508 573.311L652.292 715.841L782.967 228.736C790.877 199.252 768.329 167.205 732.621 157.648L210.622 17.9456C174.914 8.38902 139.344 24.8822 131.434 54.3663L44.1335 379.789C36.2238 409.273 58.7717 441.321 94.4798 450.877L551.229 573.117Z" fill="#FDFFFC" stroke="#EAEAEA"/>
<path d="M232.441 135.844L254.142 141.652L252.575 147.493L244.785 145.408L239.213 166.178L247.003 168.263L245.436 174.104L223.735 168.297L225.302 162.455L233.092 164.54L238.664 143.77L230.874 141.686L232.441 135.844ZM258.388 152.925L264.926 154.675L266.195 149.946C266.551 148.617 267.298 147.624 268.435 146.968C269.58 146.281 270.817 146.115 272.147 146.471L281.513 148.977L280.02 154.541L273.065 152.679C272.231 152.456 271.689 152.808 271.44 153.735L270.769 156.238L279.81 158.658L278.318 164.221L269.276 161.802L264.6 179.233L258.757 177.67L263.434 160.238L256.896 158.488L258.388 152.925ZM330.936 172.341L336.779 173.905L329.093 202.556C328.811 203.606 328.238 204.381 327.376 204.879C326.544 205.385 325.603 205.497 324.552 205.216L310.873 201.555L312.366 195.992L322.521 198.71C323.355 198.933 323.897 198.581 324.146 197.654L325.663 191.998L324.828 191.775C323.095 194.16 320.544 194.901 317.174 193.999C316.031 193.693 315.014 193.223 314.124 192.587C313.235 191.951 312.522 191.148 311.988 190.177C311.453 189.205 311.123 188.09 310.997 186.831C310.91 185.549 311.078 184.12 311.501 182.543L315.357 168.171L321.199 169.735L317.667 182.901C317.227 184.54 317.27 185.926 317.794 187.06C318.326 188.163 319.365 188.921 320.911 189.335C322.673 189.806 324.105 189.593 325.207 188.696C326.348 187.776 327.18 186.342 327.703 184.395L330.936 172.341ZM363.124 193.576C362.61 195.493 361.829 197.106 360.782 198.416C359.743 199.694 358.531 200.695 357.144 201.417C355.766 202.108 354.28 202.522 352.686 202.659C351.123 202.804 349.554 202.665 347.977 202.243C346.401 201.821 344.956 201.153 343.644 200.239C342.363 199.333 341.299 198.236 340.452 196.95C339.612 195.632 339.063 194.16 338.804 192.533C338.552 190.876 338.684 189.089 339.198 187.173L339.347 186.617C339.853 184.731 340.625 183.149 341.664 181.87C342.711 180.561 343.928 179.545 345.315 178.823C346.701 178.1 348.176 177.667 349.739 177.522C351.332 177.386 352.918 177.528 354.494 177.95C356.071 178.372 357.499 179.036 358.78 179.942C360.092 180.856 361.168 181.972 362.007 183.29C362.846 184.608 363.391 186.095 363.643 187.753C363.902 189.379 363.779 191.135 363.273 193.02L363.124 193.576ZM349.469 196.68C350.304 196.903 351.13 196.975 351.946 196.896C352.763 196.816 353.52 196.588 354.217 196.211C354.914 195.835 355.517 195.317 356.025 194.658C356.573 193.976 356.975 193.156 357.232 192.198L357.481 191.271C357.738 190.313 357.796 189.418 357.655 188.585C357.553 187.729 357.294 186.964 356.879 186.29C356.463 185.616 355.922 185.04 355.254 184.564C354.587 184.087 353.836 183.737 353.002 183.513C352.167 183.29 351.341 183.218 350.525 183.298C349.708 183.377 348.951 183.605 348.254 183.982C347.557 184.358 346.934 184.888 346.387 185.569C345.879 186.228 345.496 187.037 345.239 187.995L344.991 188.922C344.734 189.88 344.656 190.787 344.758 191.642C344.899 192.475 345.177 193.229 345.593 193.903C346.008 194.577 346.549 195.153 347.217 195.63C347.884 196.106 348.635 196.456 349.469 196.68ZM387.719 187.538L393.562 189.101L387.393 212.096L381.55 210.533L382.446 207.195L381.611 206.971C379.878 209.356 377.327 210.098 373.957 209.196C372.814 208.89 371.797 208.419 370.907 207.784C370.017 207.148 369.305 206.345 368.771 205.373C368.236 204.402 367.906 203.287 367.78 202.027C367.693 200.745 367.861 199.316 368.284 197.74L372.139 183.368L377.982 184.932L374.45 198.098C374.01 199.736 374.053 201.122 374.577 202.256C375.109 203.36 376.148 204.118 377.694 204.532C379.456 205.003 380.888 204.79 381.99 203.893C383.131 202.972 383.963 201.539 384.486 199.592L387.719 187.538ZM434.507 207.016C434.308 207.758 434.55 208.402 435.231 208.949C435.921 209.465 437.257 210.104 439.239 210.866C441.522 211.742 443.248 212.966 444.417 214.538C445.594 216.079 445.905 217.884 445.349 219.955L445.274 220.233C444.661 222.52 443.337 224.12 441.303 225.034C439.269 225.947 436.737 225.998 433.708 225.187C431.915 224.707 430.447 224.066 429.304 223.263C428.161 222.461 427.263 221.607 426.611 220.704C425.967 219.77 425.525 218.823 425.285 217.865C425.085 216.884 425.015 215.971 425.076 215.126L430.927 214.803C430.909 215.859 431.187 216.861 431.761 217.809C432.366 218.766 433.487 219.464 435.126 219.902C436.578 220.291 437.626 220.339 438.267 220.047C438.948 219.733 439.359 219.313 439.5 218.787C439.583 218.478 439.58 218.179 439.492 217.891C439.443 217.579 439.262 217.266 438.949 216.95C438.644 216.604 438.188 216.266 437.581 215.938C437.004 215.618 436.249 215.283 435.315 214.934C432.777 214.023 430.884 212.804 429.637 211.278C428.429 209.729 428.119 207.857 428.708 205.663L428.783 205.385C429.089 204.241 429.606 203.303 430.333 202.57C431.06 201.837 431.904 201.284 432.865 200.912C433.834 200.509 434.886 200.294 436.02 200.266C437.154 200.238 438.277 200.373 439.39 200.671C440.843 201.06 442.045 201.58 442.997 202.232C443.987 202.862 444.775 203.57 445.359 204.355C445.952 205.11 446.385 205.905 446.658 206.74C446.939 207.544 447.116 208.304 447.189 209.019L441.331 209.737C441.277 208.828 440.972 208.051 440.416 207.405C439.869 206.729 439.054 206.246 437.972 205.956C436.983 205.691 436.192 205.678 435.597 205.917C435.012 206.124 434.648 206.491 434.507 207.016ZM462.747 216.661L463.86 216.959L472.244 210.159L478.643 211.872L478.568 212.15L468.326 220.688L468.102 221.523L473.291 234.787L473.216 235.065L466.539 233.278L462.368 222.522L461.255 222.224L458.842 231.218L453 229.655L461.706 197.202L467.548 198.766L462.747 216.661ZM481.446 231.305L489.236 233.39L492.42 221.522L485.186 219.586L486.679 214.022L499.755 217.522L495.078 234.954L501.755 236.74L500.263 242.304L479.954 236.868L481.446 231.305ZM503.02 211.092C502.855 211.71 502.573 212.264 502.177 212.754C501.82 213.221 501.386 213.602 500.876 213.897C500.375 214.16 499.813 214.341 499.19 214.439C498.607 214.515 498.021 214.474 497.434 214.317C496.816 214.151 496.273 213.89 495.805 213.533C495.346 213.145 494.965 212.712 494.663 212.234C494.369 211.724 494.169 211.174 494.062 210.582C493.995 209.968 494.045 209.352 494.21 208.734C494.376 208.116 494.638 207.573 494.995 207.105C495.392 206.615 495.841 206.238 496.342 205.975C496.852 205.681 497.398 205.496 497.982 205.42C498.574 205.313 499.179 205.343 499.797 205.508C500.384 205.666 500.908 205.938 501.367 206.326C501.865 206.691 502.261 207.129 502.555 207.638C502.858 208.116 503.042 208.663 503.11 209.277C503.216 209.869 503.186 210.473 503.02 211.092ZM510.077 254.868L504.235 253.305L512.891 221.038L518.733 222.601L517.838 225.939L518.673 226.162C519.631 225.061 520.788 224.327 522.145 223.962C523.511 223.565 525.105 223.611 526.929 224.099C528.289 224.463 529.502 225.069 530.566 225.917C531.662 226.773 532.521 227.831 533.144 229.091C533.806 230.329 534.205 231.744 534.341 233.337C534.507 234.939 534.342 236.667 533.845 238.521L533.621 239.356C533.115 241.241 532.404 242.84 531.489 244.152C530.574 245.464 529.531 246.51 528.361 247.29C527.2 248.039 525.93 248.51 524.552 248.705C523.214 248.877 521.834 248.773 520.412 248.392C519.361 248.111 518.478 247.758 517.764 247.335C517.049 246.912 516.447 246.436 515.96 245.908C515.503 245.389 515.135 244.843 514.858 244.272C514.62 243.678 514.432 243.081 514.295 242.481L513.46 242.258L510.077 254.868ZM520.004 242.32C521.827 242.808 523.445 242.645 524.856 241.83C526.307 240.992 527.293 239.6 527.816 237.653L527.965 237.097C528.487 235.149 528.326 233.466 527.48 232.048C526.674 230.606 525.359 229.642 523.536 229.153C521.712 228.665 520.071 228.855 518.612 229.724C517.192 230.57 516.229 231.935 515.724 233.82L515.574 234.377C515.069 236.262 515.215 237.941 516.012 239.413C516.849 240.863 518.18 241.832 520.004 242.32ZM570.23 236.383L577.046 238.207L579.584 228.75L585.426 230.313L582.889 239.771L591.189 241.992L589.696 247.556L581.396 245.334L578.586 255.812C578.337 256.739 578.63 257.314 579.464 257.538L585.678 259.201L584.185 264.764L574.448 262.158C573.397 261.877 572.623 261.305 572.125 260.443C571.658 259.589 571.566 258.637 571.848 257.586L575.554 243.771L568.738 241.947L570.23 236.383ZM599.037 268.739L593.195 267.175L601.901 234.723L607.743 236.286L604.211 249.453L605.046 249.676C606.006 248.442 607.158 247.608 608.5 247.172C609.851 246.705 611.362 246.696 613.031 247.142C614.175 247.448 615.176 247.915 616.035 248.542C616.893 249.17 617.579 249.95 618.091 250.882C618.603 251.814 618.902 252.921 618.989 254.203C619.084 255.454 618.92 256.867 618.497 258.444L614.617 272.908L608.775 271.345L612.282 258.271C612.721 256.633 612.663 255.243 612.108 254.1C611.593 252.935 610.593 252.154 609.109 251.757C607.378 251.294 605.922 251.534 604.742 252.477C603.6 253.397 602.768 254.83 602.246 256.778L599.037 268.739ZM623.403 269.297L631.193 271.382L634.377 259.514L627.144 257.578L628.636 252.014L641.712 255.514L637.036 272.945L643.713 274.732L642.22 280.296L621.911 274.86L623.403 269.297ZM644.978 249.084C644.812 249.702 644.531 250.256 644.134 250.746C643.777 251.213 643.343 251.594 642.834 251.889C642.332 252.152 641.77 252.333 641.147 252.431C640.564 252.507 639.978 252.466 639.391 252.309C638.773 252.143 638.23 251.882 637.762 251.525C637.303 251.137 636.923 250.704 636.62 250.226C636.326 249.716 636.126 249.166 636.02 248.574C635.952 247.96 636.002 247.344 636.168 246.726C636.333 246.108 636.595 245.565 636.952 245.097C637.349 244.607 637.798 244.23 638.299 243.967C638.809 243.673 639.355 243.488 639.939 243.412C640.531 243.305 641.136 243.335 641.754 243.5C642.341 243.658 642.865 243.93 643.324 244.318C643.822 244.683 644.218 245.121 644.513 245.63C644.815 246.108 645 246.655 645.067 247.269C645.173 247.861 645.143 248.465 644.978 249.084ZM661.639 267.803C661.44 268.545 661.681 269.189 662.363 269.736C663.053 270.252 664.389 270.891 666.371 271.654C668.654 272.53 670.38 273.753 671.548 275.325C672.725 276.866 673.036 278.671 672.48 280.742L672.406 281.02C671.792 283.307 670.468 284.908 668.434 285.821C666.4 286.734 663.869 286.785 660.839 285.974C659.046 285.495 657.578 284.853 656.435 284.05C655.292 283.248 654.395 282.395 653.742 281.491C653.098 280.557 652.657 279.611 652.417 278.652C652.216 277.671 652.146 276.758 652.207 275.913L658.059 275.591C658.041 276.646 658.319 277.648 658.892 278.596C659.497 279.553 660.619 280.251 662.257 280.689C663.71 281.078 664.757 281.127 665.399 280.834C666.079 280.52 666.49 280.1 666.631 279.574C666.714 279.265 666.712 278.966 666.623 278.678C666.574 278.366 666.393 278.053 666.08 277.737C665.776 277.391 665.32 277.053 664.712 276.725C664.135 276.405 663.38 276.071 662.447 275.721C659.908 274.81 658.015 273.591 656.768 272.065C655.56 270.516 655.251 268.644 655.839 266.45L655.914 266.172C656.221 265.028 656.737 264.09 657.464 263.357C658.191 262.624 659.035 262.071 659.996 261.699C660.966 261.296 662.018 261.081 663.151 261.053C664.285 261.025 665.409 261.16 666.522 261.458C667.974 261.847 669.177 262.367 670.128 263.02C671.119 263.649 671.906 264.357 672.491 265.143C673.083 265.897 673.516 266.692 673.789 267.527C674.07 268.331 674.248 269.091 674.321 269.806L668.463 270.524C668.408 269.615 668.103 268.838 667.548 268.192C667 267.516 666.186 267.033 665.104 266.743C664.115 266.478 663.323 266.465 662.729 266.704C662.143 266.911 661.78 267.278 661.639 267.803ZM221.166 235.145L229.234 237.304L234.955 215.978L227.165 213.894L228.658 208.33L242.29 211.979L235.076 238.868L242.588 240.878L241.096 246.442L219.674 240.708L221.166 235.145ZM255.925 240.125C255.774 240.813 255.758 241.488 255.879 242.15C256.039 242.789 256.308 243.391 256.687 243.956C257.104 244.498 257.605 244.98 258.188 245.401C258.81 245.799 259.492 246.098 260.233 246.296C261.686 246.685 262.865 246.736 263.771 246.448C264.685 246.129 265.407 245.66 265.938 245.04L270.199 249.162C269.763 249.675 269.211 250.19 268.543 250.706C267.882 251.192 267.08 251.59 266.135 251.901C265.221 252.219 264.147 252.395 262.912 252.429C261.708 252.471 260.348 252.29 258.834 251.884C257.103 251.421 255.601 250.721 254.328 249.784C253.055 248.847 252.034 247.713 251.265 246.381C250.527 245.057 250.067 243.559 249.886 241.887C249.736 240.224 249.918 238.434 250.432 236.518L250.507 236.24C250.98 234.478 251.704 232.95 252.681 231.654C253.689 230.367 254.856 229.354 256.18 228.615C257.505 227.877 258.937 227.415 260.478 227.231C262.057 227.025 263.651 227.136 265.258 227.567C267.236 228.096 268.841 228.907 270.072 229.998C271.312 231.058 272.25 232.254 272.888 233.584C273.533 234.883 273.898 236.239 273.983 237.653C274.075 239.036 273.96 240.33 273.637 241.536L272.803 244.642L255.925 240.125ZM263.794 232.839C262.31 232.442 261.001 232.506 259.866 233.03C258.74 233.524 257.905 234.228 257.361 235.143L268.211 238.046C268.316 236.915 267.969 235.862 267.171 234.886C266.403 233.919 265.278 233.236 263.794 232.839ZM281.141 232.513L287.447 234.201L287.45 255.866L288.285 256.089L299.132 237.328L305.438 239.016L292.685 260.248L281.557 257.27L281.141 232.513ZM312.708 255.322C312.557 256.01 312.541 256.685 312.662 257.346C312.822 257.986 313.091 258.588 313.47 259.153C313.887 259.695 314.388 260.177 314.97 260.598C315.592 260.996 316.274 261.295 317.016 261.493C318.469 261.882 319.648 261.933 320.554 261.645C321.468 261.326 322.19 260.857 322.721 260.237L326.982 264.359C326.546 264.872 325.994 265.387 325.325 265.903C324.665 266.389 323.862 266.787 322.918 267.097C322.004 267.416 320.93 267.592 319.695 267.626C318.491 267.668 317.131 267.487 315.617 267.081C313.885 266.618 312.384 265.918 311.111 264.981C309.838 264.044 308.817 262.91 308.048 261.577C307.31 260.254 306.85 258.756 306.669 257.084C306.519 255.421 306.701 253.631 307.215 251.715L307.29 251.437C307.762 249.675 308.487 248.146 309.464 246.851C310.472 245.564 311.638 244.551 312.963 243.812C314.288 243.074 315.72 242.612 317.26 242.428C318.84 242.221 320.433 242.333 322.041 242.763C324.019 243.293 325.624 244.103 326.855 245.195C328.095 246.255 329.033 247.451 329.67 248.78C330.316 250.079 330.681 251.436 330.765 252.85C330.858 254.233 330.743 255.527 330.42 256.732L329.586 259.839L312.708 255.322ZM320.577 248.036C319.093 247.639 317.784 247.703 316.649 248.227C315.523 248.721 314.688 249.425 314.144 250.339L324.994 253.243C325.099 252.112 324.752 251.058 323.954 250.083C323.186 249.115 322.06 248.433 320.577 248.036ZM334.732 265.539L342.8 267.698L348.521 246.372L340.731 244.287L342.223 238.724L355.856 242.372L348.642 269.262L356.154 271.272L354.661 276.835L333.239 271.102L334.732 265.539ZM411.91 267.511L417.752 269.074L410.066 297.725C409.784 298.776 409.212 299.55 408.349 300.048C407.518 300.555 406.577 300.667 405.525 300.386L391.847 296.725L393.339 291.162L403.494 293.879C404.329 294.103 404.87 293.751 405.119 292.824L406.636 287.168L405.802 286.944C404.069 289.329 401.517 290.071 398.148 289.169C397.004 288.863 395.987 288.392 395.098 287.757C394.208 287.121 393.496 286.317 392.961 285.346C392.427 284.375 392.096 283.26 391.97 282C391.884 280.718 392.052 279.289 392.474 277.713L396.33 263.341L402.172 264.905L398.64 278.071C398.201 279.709 398.243 281.095 398.767 282.229C399.3 283.332 400.338 284.091 401.884 284.504C403.646 284.976 405.078 284.763 406.18 283.865C407.322 282.945 408.154 281.512 408.676 279.564L411.91 267.511ZM444.097 288.746C443.583 290.662 442.803 292.275 441.756 293.585C440.717 294.864 439.504 295.865 438.118 296.587C436.739 297.278 435.253 297.692 433.66 297.828C432.097 297.973 430.527 297.835 428.95 297.413C427.374 296.991 425.93 296.323 424.618 295.409C423.337 294.503 422.273 293.406 421.425 292.119C420.586 290.802 420.036 289.329 419.777 287.703C419.526 286.046 419.657 284.259 420.171 282.343L420.321 281.786C420.826 279.901 421.599 278.319 422.638 277.04C423.685 275.73 424.901 274.714 426.288 273.992C427.674 273.27 429.149 272.837 430.712 272.692C432.306 272.555 433.891 272.698 435.467 273.12C437.044 273.542 438.473 274.206 439.754 275.112C441.066 276.026 442.141 277.142 442.98 278.46C443.82 279.777 444.365 281.265 444.616 282.922C444.876 284.549 444.752 286.304 444.247 288.19L444.097 288.746ZM430.443 291.85C431.278 292.073 432.103 292.145 432.92 292.065C433.736 291.986 434.493 291.757 435.19 291.381C435.888 291.004 436.491 290.487 436.999 289.828C437.546 289.146 437.948 288.326 438.205 287.368L438.454 286.441C438.711 285.483 438.769 284.587 438.628 283.754C438.526 282.899 438.267 282.134 437.852 281.46C437.437 280.785 436.895 280.21 436.228 279.733C435.561 279.256 434.81 278.906 433.975 278.683C433.14 278.46 432.315 278.388 431.498 278.467C430.682 278.547 429.925 278.775 429.227 279.152C428.53 279.528 427.908 280.057 427.36 280.739C426.852 281.398 426.47 282.207 426.213 283.165L425.964 284.092C425.707 285.05 425.629 285.957 425.731 286.812C425.872 287.645 426.15 288.398 426.566 289.073C426.981 289.747 427.523 290.323 428.19 290.799C428.857 291.276 429.608 291.626 430.443 291.85ZM468.693 282.707L474.535 284.271L468.366 307.266L462.524 305.702L463.419 302.364L462.585 302.141C460.851 304.526 458.3 305.268 454.931 304.366C453.787 304.06 452.77 303.589 451.881 302.953C450.991 302.318 450.279 301.514 449.744 300.543C449.21 299.572 448.879 298.456 448.753 297.197C448.666 295.915 448.834 294.486 449.257 292.91L453.113 278.538L458.955 280.101L455.423 293.268C454.984 294.906 455.026 296.292 455.55 297.426C456.082 298.529 457.121 299.288 458.667 299.701C460.429 300.173 461.861 299.96 462.963 299.062C464.105 298.142 464.937 296.708 465.459 294.761L468.693 282.707ZM521.129 317.809L520.295 317.586C519.907 318.045 519.461 318.472 518.957 318.868C518.493 319.24 517.917 319.533 517.23 319.747C516.574 319.969 515.815 320.081 514.954 320.082C514.123 320.092 513.151 319.947 512.038 319.65C510.616 319.269 509.353 318.666 508.249 317.841C507.185 316.992 506.322 315.95 505.66 314.713C505.037 313.453 504.657 312.026 504.522 310.433C504.417 308.848 504.617 307.113 505.123 305.227L505.347 304.393C505.844 302.539 506.551 300.955 507.466 299.643C508.412 298.34 509.481 297.317 510.674 296.576C511.906 295.813 513.211 295.334 514.588 295.139C515.996 294.953 517.396 295.046 518.787 295.419C520.642 295.915 522.015 296.663 522.906 297.664C523.805 298.633 524.394 299.834 524.673 301.267L525.507 301.49L528.94 288.695L534.782 290.258L526.076 322.711L520.234 321.147L521.129 317.809ZM515.432 314.595C517.256 315.083 518.877 314.904 520.297 314.059C521.756 313.19 522.738 311.813 523.244 309.928L523.393 309.372C523.899 307.486 523.733 305.819 522.896 304.369C522.098 302.897 520.788 301.917 518.964 301.429C517.14 300.941 515.503 301.115 514.052 301.953C512.641 302.767 511.674 304.148 511.152 306.096L511.003 306.652C510.48 308.599 510.622 310.293 511.428 311.735C512.273 313.154 513.608 314.107 515.432 314.595ZM557.663 319.14C557.149 321.056 556.368 322.669 555.321 323.979C554.282 325.258 553.07 326.258 551.683 326.98C550.305 327.671 548.819 328.085 547.225 328.222C545.662 328.367 544.093 328.228 542.516 327.806C540.94 327.384 539.495 326.716 538.183 325.802C536.902 324.896 535.838 323.8 534.991 322.513C534.152 321.195 533.602 319.723 533.343 318.097C533.092 316.439 533.223 314.653 533.737 312.736L533.886 312.18C534.392 310.295 535.164 308.713 536.203 307.434C537.25 306.124 538.467 305.108 539.854 304.386C541.24 303.664 542.715 303.23 544.278 303.085C545.872 302.949 547.457 303.091 549.033 303.513C550.61 303.935 552.038 304.599 553.319 305.505C554.631 306.419 555.707 307.535 556.546 308.853C557.385 310.171 557.931 311.659 558.182 313.316C558.441 314.942 558.318 316.698 557.812 318.583L557.663 319.14ZM544.009 322.243C544.843 322.466 545.669 322.538 546.485 322.459C547.302 322.379 548.059 322.151 548.756 321.775C549.454 321.398 550.056 320.88 550.564 320.221C551.112 319.54 551.514 318.72 551.771 317.762L552.02 316.834C552.277 315.876 552.335 314.981 552.194 314.148C552.092 313.293 551.833 312.528 551.418 311.853C551.002 311.179 550.461 310.603 549.794 310.127C549.126 309.65 548.375 309.3 547.541 309.077C546.706 308.853 545.881 308.781 545.064 308.861C544.248 308.941 543.491 309.169 542.793 309.545C542.096 309.922 541.473 310.451 540.926 311.132C540.418 311.792 540.035 312.6 539.778 313.558L539.53 314.485C539.273 315.444 539.195 316.35 539.297 317.206C539.438 318.038 539.716 318.792 540.132 319.466C540.547 320.141 541.088 320.716 541.756 321.193C542.423 321.67 543.174 322.02 544.009 322.243ZM566.352 333.49L560.51 331.926L566.679 308.931L572.521 310.495L571.601 313.926L572.435 314.149C573.309 312.992 574.429 312.215 575.794 311.818C577.159 311.422 578.63 311.434 580.207 311.856C581.32 312.154 582.305 312.617 583.164 313.244C584.062 313.849 584.783 314.621 585.325 315.562C585.868 316.502 586.187 317.598 586.282 318.849C586.408 320.108 586.26 321.526 585.837 323.102L581.932 337.66L576.089 336.096L579.597 323.022C580.036 321.384 579.978 319.994 579.423 318.852C578.908 317.687 577.908 316.906 576.424 316.509C574.693 316.045 573.237 316.285 572.057 317.228C570.915 318.148 570.083 319.582 569.561 321.529L566.352 333.49ZM602.779 312.432C602.937 311.844 603.194 311.317 603.551 310.849C603.948 310.359 604.397 309.983 604.898 309.719C605.408 309.425 605.955 309.24 606.538 309.164C607.13 309.058 607.735 309.087 608.353 309.253C608.941 309.41 609.464 309.682 609.923 310.07C610.421 310.435 610.818 310.873 611.112 311.382C611.414 311.861 611.599 312.407 611.666 313.021C611.772 313.613 611.747 314.202 611.589 314.789L610.072 320.445C609.757 321.62 609.09 322.501 608.07 323.09C607.082 323.687 606 323.828 604.826 323.513L601.858 322.719L602.828 319.103L605.054 319.699C605.889 319.922 606.43 319.57 606.679 318.643L606.828 318.087C606.556 318.113 606.281 318.089 606.003 318.015C605.384 317.849 604.842 317.588 604.374 317.231C603.915 316.843 603.538 316.395 603.244 315.885C602.95 315.376 602.75 314.825 602.644 314.234C602.568 313.65 602.613 313.05 602.779 312.432ZM622.812 323.954L629.628 325.779L632.166 316.321L638.008 317.885L635.471 327.342L643.771 329.564L642.278 335.127L633.978 332.906L631.168 343.383C630.919 344.31 631.212 344.886 632.046 345.109L638.26 346.772L636.767 352.335L627.03 349.729C625.979 349.448 625.205 348.876 624.707 348.014C624.24 347.161 624.148 346.208 624.43 345.157L628.136 331.342L621.32 329.518L622.812 323.954ZM160.978 308.436L155.136 306.873L163.792 274.606L169.635 276.169L168.739 279.507L169.574 279.731C170.532 278.629 171.689 277.895 173.047 277.53C174.412 277.133 176.007 277.179 177.83 277.667C179.19 278.031 180.403 278.637 181.467 279.485C182.563 280.342 183.422 281.4 184.045 282.66C184.707 283.897 185.106 285.312 185.242 286.905C185.408 288.507 185.243 290.235 184.746 292.089L184.522 292.924C184.016 294.809 183.305 296.408 182.39 297.72C181.475 299.032 180.432 300.078 179.262 300.858C178.101 301.607 176.831 302.079 175.454 302.273C174.115 302.445 172.735 302.341 171.313 301.96C170.262 301.679 169.379 301.327 168.665 300.903C167.95 300.48 167.349 300.005 166.861 299.477C166.404 298.957 166.037 298.411 165.759 297.84C165.521 297.246 165.333 296.649 165.196 296.05L164.361 295.826L160.978 308.436ZM170.905 295.888C172.728 296.376 174.346 296.213 175.757 295.398C177.208 294.56 178.194 293.168 178.717 291.221L178.866 290.665C179.388 288.718 179.227 287.035 178.382 285.616C177.576 284.174 176.261 283.21 174.437 282.722C172.613 282.233 170.972 282.424 169.513 283.292C168.093 284.138 167.13 285.503 166.625 287.389L166.475 287.945C165.97 289.83 166.116 291.509 166.913 292.981C167.75 294.431 169.081 295.4 170.905 295.888ZM208.969 286.696L214.811 288.26L208.642 311.255L202.8 309.691L203.695 306.353L202.861 306.13C201.128 308.515 198.576 309.257 195.207 308.355C194.063 308.049 193.047 307.578 192.157 306.942C191.267 306.307 190.555 305.503 190.02 304.532C189.486 303.561 189.155 302.445 189.029 301.186C188.943 299.904 189.111 298.475 189.534 296.899L193.389 282.527L199.232 284.09L195.699 297.257C195.26 298.895 195.302 300.281 195.826 301.415C196.359 302.518 197.398 303.276 198.943 303.69C200.705 304.162 202.137 303.949 203.24 303.051C204.381 302.131 205.213 300.697 205.735 298.75L208.969 286.696ZM227.366 298.576C227.167 299.318 227.408 299.962 228.089 300.509C228.779 301.025 230.115 301.664 232.097 302.427C234.38 303.303 236.106 304.526 237.275 306.098C238.452 307.639 238.763 309.444 238.207 311.515L238.133 311.793C237.519 314.08 236.195 315.681 234.161 316.594C232.127 317.507 229.595 317.558 226.566 316.747C224.773 316.268 223.305 315.626 222.162 314.823C221.019 314.021 220.121 313.168 219.469 312.264C218.825 311.33 218.383 310.384 218.144 309.425C217.943 308.444 217.873 307.531 217.934 306.686L223.786 306.364C223.768 307.419 224.045 308.421 224.619 309.369C225.224 310.326 226.345 311.024 227.984 311.462C229.437 311.851 230.484 311.899 231.125 311.607C231.806 311.293 232.217 310.873 232.358 310.347C232.441 310.038 232.438 309.739 232.35 309.451C232.301 309.139 232.12 308.826 231.807 308.51C231.503 308.164 231.046 307.826 230.439 307.498C229.862 307.178 229.107 306.844 228.173 306.494C225.635 305.583 223.742 304.364 222.495 302.838C221.287 301.289 220.977 299.417 221.566 297.223L221.641 296.945C221.948 295.801 222.464 294.863 223.191 294.13C223.918 293.397 224.762 292.844 225.723 292.472C226.693 292.069 227.744 291.854 228.878 291.826C230.012 291.798 231.136 291.933 232.248 292.231C233.701 292.62 234.903 293.14 235.855 293.792C236.846 294.422 237.633 295.13 238.218 295.915C238.81 296.67 239.243 297.465 239.516 298.3C239.797 299.104 239.975 299.864 240.048 300.579L234.19 301.297C234.135 300.388 233.83 299.611 233.275 298.965C232.727 298.289 231.912 297.806 230.831 297.516C229.841 297.251 229.05 297.238 228.456 297.477C227.87 297.684 227.506 298.051 227.366 298.576ZM249.938 322.307L244.096 320.743L252.802 288.291L258.644 289.854L255.112 303.021L255.947 303.244C256.907 302.011 258.059 301.176 259.402 300.74C260.753 300.274 262.263 300.264 263.932 300.71C265.076 301.017 266.077 301.483 266.936 302.111C267.795 302.738 268.48 303.518 268.992 304.45C269.504 305.382 269.803 306.489 269.89 307.771C269.985 309.022 269.821 310.436 269.398 312.012L265.518 326.476L259.676 324.913L263.183 311.839C263.622 310.201 263.565 308.811 263.01 307.669C262.494 306.504 261.494 305.723 260.01 305.325C258.279 304.862 256.823 305.102 255.643 306.045C254.501 306.965 253.669 308.399 253.147 310.346L249.938 322.307ZM322.535 317.09L328.377 318.654L320.691 347.304C320.409 348.355 319.837 349.13 318.974 349.628C318.143 350.134 317.201 350.246 316.15 349.965L302.472 346.304L303.964 340.741L314.119 343.459C314.953 343.682 315.495 343.33 315.744 342.403L317.261 336.747L316.427 336.523C314.693 338.909 312.142 339.65 308.773 338.748C307.629 338.442 306.612 337.971 305.723 337.336C304.833 336.7 304.121 335.897 303.586 334.926C303.051 333.954 302.721 332.839 302.595 331.58C302.508 330.298 302.676 328.868 303.099 327.292L306.955 312.92L312.797 314.484L309.265 327.65C308.826 329.288 308.868 330.675 309.392 331.809C309.924 332.912 310.963 333.67 312.509 334.084C314.271 334.555 315.703 334.342 316.805 333.445C317.947 332.525 318.779 331.091 319.301 329.144L322.535 317.09ZM354.722 338.325C354.208 340.242 353.427 341.855 352.38 343.164C351.341 344.443 350.129 345.444 348.742 346.166C347.364 346.857 345.878 347.271 344.284 347.408C342.721 347.553 341.152 347.414 339.575 346.992C337.999 346.57 336.555 345.902 335.243 344.988C333.962 344.082 332.897 342.985 332.05 341.699C331.211 340.381 330.661 338.909 330.402 337.282C330.151 335.625 330.282 333.838 330.796 331.922L330.945 331.366C331.451 329.48 332.224 327.898 333.262 326.619C334.31 325.31 335.526 324.294 336.913 323.571C338.299 322.849 339.774 322.416 341.337 322.271C342.931 322.134 344.516 322.277 346.092 322.699C347.669 323.121 349.098 323.785 350.379 324.691C351.691 325.605 352.766 326.721 353.605 328.039C354.445 329.357 354.99 330.844 355.241 332.501C355.5 334.128 355.377 335.884 354.871 337.769L354.722 338.325ZM341.068 341.429C341.902 341.652 342.728 341.724 343.544 341.644C344.361 341.565 345.118 341.337 345.815 340.96C346.513 340.584 347.115 340.066 347.623 339.407C348.171 338.725 348.573 337.905 348.83 336.947L349.079 336.02C349.336 335.062 349.394 334.166 349.253 333.334C349.151 332.478 348.892 331.713 348.477 331.039C348.061 330.365 347.52 329.789 346.853 329.312C346.185 328.836 345.434 328.486 344.6 328.262C343.765 328.039 342.94 327.967 342.123 328.047C341.307 328.126 340.55 328.354 339.852 328.731C339.155 329.107 338.533 329.636 337.985 330.318C337.477 330.977 337.095 331.786 336.838 332.744L336.589 333.671C336.332 334.629 336.254 335.536 336.356 336.391C336.497 337.224 336.775 337.978 337.191 338.652C337.606 339.326 338.148 339.902 338.815 340.379C339.482 340.855 340.233 341.205 341.068 341.429ZM379.317 332.287L385.16 333.85L378.991 356.845L373.149 355.282L374.044 351.944L373.209 351.72C371.476 354.105 368.925 354.847 365.556 353.945C364.412 353.639 363.395 353.168 362.505 352.533C361.616 351.897 360.904 351.094 360.369 350.122C359.834 349.151 359.504 348.036 359.378 346.776C359.291 345.494 359.459 344.065 359.882 342.489L363.738 328.117L369.58 329.681L366.048 342.847C365.608 344.485 365.651 345.871 366.175 347.005C366.707 348.108 367.746 348.867 369.292 349.281C371.054 349.752 372.486 349.539 373.588 348.642C374.729 347.721 375.561 346.288 376.084 344.34L379.317 332.287ZM391.016 335.418L400.754 338.024L399.858 341.362L400.693 341.585C401.465 340.434 402.453 339.654 403.656 339.248C404.897 338.818 406.245 338.798 407.697 339.186C409.985 339.799 411.629 341.017 412.631 342.842C413.64 344.636 413.751 347.001 412.964 349.937L412.69 350.957L406.513 349.9L406.687 349.251C407.027 347.984 406.972 346.893 406.522 345.977C406.08 345.031 405.21 344.384 403.911 344.037C402.613 343.689 401.473 343.864 400.49 344.562C399.508 345.26 398.793 346.443 398.345 348.112L396.355 355.53L401.641 356.944L400.149 362.508L384.291 358.264L385.784 352.7L390.513 353.966L393.697 342.098L389.524 340.981L391.016 335.418ZM426.106 351.765C425.907 352.507 426.148 353.151 426.829 353.698C427.519 354.214 428.855 354.853 430.837 355.615C433.12 356.491 434.846 357.715 436.015 359.287C437.192 360.827 437.503 362.633 436.947 364.704L436.873 364.982C436.259 367.269 434.935 368.869 432.901 369.783C430.867 370.696 428.335 370.747 425.306 369.936C423.513 369.456 422.045 368.815 420.902 368.012C419.759 367.209 418.861 366.356 418.209 365.453C417.565 364.519 417.123 363.572 416.884 362.614C416.683 361.633 416.613 360.719 416.674 359.875L422.526 359.552C422.508 360.608 422.785 361.609 423.359 362.558C423.964 363.515 425.085 364.213 426.724 364.651C428.177 365.04 429.224 365.088 429.865 364.796C430.546 364.482 430.957 364.061 431.098 363.536C431.181 363.227 431.178 362.928 431.09 362.639C431.041 362.328 430.86 362.015 430.547 361.699C430.243 361.353 429.786 361.015 429.179 360.687C428.602 360.367 427.847 360.032 426.913 359.683C424.375 358.772 422.482 357.553 421.235 356.027C420.027 354.478 419.717 352.606 420.306 350.412L420.381 350.134C420.688 348.99 421.204 348.052 421.931 347.319C422.658 346.586 423.502 346.033 424.463 345.661C425.433 345.258 426.484 345.042 427.618 345.015C428.752 344.987 429.876 345.122 430.988 345.42C432.441 345.809 433.643 346.329 434.595 346.981C435.586 347.611 436.373 348.318 436.958 349.104C437.55 349.859 437.983 350.654 438.256 351.489C438.537 352.293 438.715 353.053 438.788 353.768L432.93 354.486C432.875 353.577 432.57 352.8 432.015 352.154C431.467 351.477 430.652 350.994 429.571 350.705C428.581 350.44 427.79 350.427 427.196 350.666C426.61 350.873 426.246 351.24 426.106 351.765ZM450.465 365.688C450.313 366.376 450.298 367.051 450.418 367.713C450.578 368.352 450.847 368.954 451.226 369.519C451.644 370.062 452.144 370.543 452.727 370.964C453.349 371.363 454.031 371.661 454.773 371.86C456.225 372.248 457.405 372.299 458.31 372.011C459.224 371.693 459.946 371.223 460.477 370.604L464.738 374.725C464.303 375.238 463.75 375.753 463.082 376.27C462.421 376.755 461.619 377.153 460.674 377.464C459.76 377.782 458.686 377.959 457.451 377.993C456.247 378.035 454.888 377.853 453.373 377.448C451.642 376.984 450.14 376.284 448.867 375.347C447.594 374.411 446.574 373.276 445.804 371.944C445.066 370.62 444.607 369.122 444.426 367.451C444.275 365.787 444.457 363.998 444.971 362.081L445.046 361.803C445.519 360.041 446.243 358.513 447.221 357.217C448.228 355.93 449.395 354.917 450.719 354.179C452.044 353.44 453.476 352.979 455.017 352.795C456.596 352.588 458.19 352.7 459.797 353.13C461.776 353.659 463.38 354.47 464.612 355.561C465.851 356.622 466.789 357.817 467.427 359.147C468.072 360.446 468.437 361.802 468.522 363.216C468.614 364.599 468.499 365.894 468.176 367.099L467.343 370.205L450.465 365.688ZM458.333 358.403C456.849 358.005 455.54 358.069 454.405 358.594C453.279 359.087 452.444 359.791 451.9 360.706L462.751 363.61C462.855 362.478 462.508 361.425 461.71 360.449C460.942 359.482 459.817 358.8 458.333 358.403ZM472.488 375.905L480.556 378.064L486.277 356.738L478.487 354.654L479.98 349.09L493.612 352.739L486.398 379.628L493.91 381.638L492.418 387.202L470.995 381.468L472.488 375.905ZM505.509 366.059L512.047 367.809L513.316 363.08C513.672 361.751 514.419 360.759 515.556 360.102C516.701 359.415 517.938 359.249 519.268 359.605L528.634 362.112L527.142 367.675L520.186 365.814C519.352 365.59 518.81 365.942 518.561 366.869L517.89 369.373L526.931 371.793L525.439 377.356L516.397 374.936L511.721 392.368L505.878 390.804L510.555 373.372L504.017 371.623L505.509 366.059ZM562.244 405.889L556.402 404.326L565.108 371.873L570.95 373.437L567.418 386.603L568.252 386.827C569.213 385.593 570.365 384.758 571.707 384.323C573.058 383.856 574.568 383.846 576.238 384.293C577.381 384.599 578.383 385.066 579.241 385.693C580.1 386.32 580.786 387.1 581.298 388.032C581.81 388.964 582.109 390.071 582.196 391.353C582.291 392.604 582.127 394.018 581.704 395.594L577.824 410.059L571.981 408.495L575.489 395.421C575.928 393.783 575.87 392.393 575.315 391.251C574.8 390.086 573.8 389.305 572.316 388.908C570.585 388.445 569.129 388.684 567.948 389.627C566.807 390.547 565.975 391.981 565.453 393.928L562.244 405.889ZM600.48 412.545C599.472 413.832 598.329 414.636 597.05 414.956C595.78 415.245 594.403 415.191 592.919 414.794C591.528 414.422 590.284 413.808 589.189 412.951C588.124 412.103 587.265 411.045 586.611 409.777C585.958 408.509 585.547 407.074 585.381 405.473C585.245 403.879 585.426 402.155 585.923 400.301L586.122 399.559C586.611 397.736 587.314 396.168 588.229 394.856C589.144 393.544 590.187 392.498 591.357 391.718C592.527 390.938 593.77 390.442 595.085 390.231C596.44 389.998 597.798 390.063 599.158 390.427C600.796 390.865 602.035 391.495 602.875 392.316C603.746 393.146 604.317 394.226 604.59 395.558L605.424 395.781L606.171 392.999L612.013 394.563L607.71 410.604C607.461 411.531 607.754 412.106 608.589 412.33L609.47 412.565L607.977 418.129L603.989 417.062C602.938 416.78 602.156 416.24 601.642 415.439C601.158 414.648 601.049 413.757 601.315 412.768L600.48 412.545ZM595.71 409.579C597.41 410.034 598.919 409.841 600.238 409.002C601.565 408.131 602.489 406.722 603.012 404.775L603.161 404.219C603.683 402.272 603.584 400.605 602.862 399.219C602.149 397.803 600.942 396.867 599.242 396.412C597.542 395.957 596.028 396.165 594.701 397.035C593.383 397.875 592.462 399.268 591.94 401.216L591.79 401.772C591.268 403.719 591.364 405.401 592.077 406.818C592.799 408.203 594.009 409.124 595.71 409.579ZM618.148 396.205L627.885 398.811L626.99 402.149L627.824 402.372C628.597 401.221 629.585 400.442 630.787 400.035C632.029 399.605 633.376 399.585 634.829 399.974C637.116 400.586 638.761 401.804 639.762 403.629C640.772 405.423 640.883 407.788 640.095 410.725L639.821 411.744L633.644 410.688L633.818 410.039C634.158 408.771 634.103 407.68 633.653 406.764C633.211 405.818 632.341 405.171 631.043 404.824C629.745 404.476 628.604 404.651 627.622 405.349C626.64 406.047 625.925 407.23 625.477 408.899L623.487 416.317L628.773 417.732L627.28 423.295L611.422 419.051L612.915 413.488L617.644 414.753L620.828 402.885L616.655 401.768L618.148 396.205ZM658.886 428.176L658.051 427.952C657.663 428.412 657.217 428.839 656.713 429.234C656.249 429.607 655.673 429.9 654.986 430.114C654.33 430.336 653.572 430.447 652.71 430.448C651.879 430.458 650.907 430.314 649.794 430.016C648.372 429.635 647.11 429.032 646.006 428.207C644.941 427.359 644.078 426.316 643.416 425.079C642.793 423.819 642.414 422.393 642.278 420.799C642.173 419.214 642.373 417.479 642.879 415.594L643.103 414.759C643.6 412.905 644.307 411.322 645.222 410.01C646.168 408.706 647.238 407.684 648.43 406.943C649.662 406.179 650.967 405.7 652.344 405.506C653.753 405.32 655.152 405.413 656.543 405.785C658.398 406.281 659.771 407.03 660.662 408.03C661.562 409 662.151 410.201 662.429 411.633L663.264 411.857L666.696 399.061L672.539 400.625L663.833 433.077L657.99 431.514L658.886 428.176ZM653.188 424.961C655.012 425.45 656.633 425.271 658.053 424.425C659.512 423.557 660.494 422.18 661 420.294L661.149 419.738C661.655 417.853 661.489 416.185 660.652 414.736C659.855 413.263 658.544 412.283 656.72 411.795C654.896 411.307 653.259 411.482 651.809 412.319C650.397 413.134 649.43 414.515 648.908 416.462L648.759 417.018C648.236 418.966 648.378 420.66 649.184 422.101C650.03 423.52 651.364 424.473 653.188 424.961ZM318.502 403.87C318.351 404.558 318.335 405.233 318.456 405.895C318.616 406.534 318.885 407.136 319.264 407.701C319.681 408.243 320.182 408.725 320.764 409.146C321.386 409.544 322.068 409.843 322.81 410.041C324.263 410.43 325.442 410.481 326.348 410.193C327.261 409.874 327.984 409.405 328.514 408.785L332.776 412.907C332.34 413.42 331.788 413.935 331.119 414.451C330.459 414.937 329.656 415.335 328.712 415.645C327.798 415.964 326.724 416.14 325.489 416.174C324.285 416.216 322.925 416.035 321.41 415.629C319.679 415.166 318.178 414.466 316.905 413.529C315.632 412.592 314.611 411.458 313.842 410.126C313.104 408.802 312.644 407.304 312.463 405.632C312.313 403.969 312.495 402.179 313.009 400.263L313.084 399.985C313.556 398.223 314.281 396.694 315.258 395.399C316.266 394.112 317.432 393.099 318.757 392.36C320.082 391.622 321.514 391.16 323.054 390.976C324.634 390.77 326.227 390.881 327.835 391.312C329.813 391.841 331.418 392.651 332.649 393.743C333.889 394.803 334.827 395.999 335.464 397.329C336.11 398.628 336.475 399.984 336.559 401.398C336.652 402.781 336.537 404.075 336.213 405.281L335.38 408.387L318.502 403.87ZM326.371 396.584C324.887 396.187 323.578 396.251 322.443 396.775C321.317 397.269 320.482 397.973 319.938 398.888L330.788 401.791C330.893 400.66 330.546 399.606 329.748 398.631C328.98 397.664 327.854 396.981 326.371 396.584ZM345.015 421.251L339.172 419.687L345.341 396.692L351.183 398.256L350.263 401.687L351.098 401.91C351.971 400.753 353.091 399.976 354.456 399.579C355.822 399.183 357.293 399.195 358.869 399.617C359.982 399.915 360.968 400.378 361.827 401.005C362.725 401.61 363.445 402.382 363.988 403.323C364.531 404.263 364.85 405.359 364.945 406.61C365.071 407.869 364.922 409.287 364.5 410.863L360.594 425.42L354.752 423.857L358.259 410.783C358.699 409.145 358.641 407.755 358.086 406.613C357.57 405.448 356.57 404.667 355.087 404.269C353.356 403.806 351.9 404.046 350.719 404.989C349.578 405.909 348.746 407.343 348.223 409.29L345.015 421.251ZM393.108 422.097C392.594 424.014 391.814 425.627 390.767 426.936C389.728 428.215 388.515 429.216 387.129 429.938C385.75 430.629 384.264 431.043 382.671 431.18C381.108 431.325 379.538 431.186 377.962 430.764C376.385 430.342 374.941 429.674 373.629 428.76C372.348 427.854 371.284 426.757 370.436 425.471C369.597 424.153 369.048 422.681 368.788 421.054C368.537 419.397 368.668 417.61 369.182 415.694L369.332 415.138C369.837 413.252 370.61 411.67 371.649 410.391C372.696 409.082 373.913 408.066 375.299 407.344C376.685 406.621 378.16 406.188 379.723 406.043C381.317 405.906 382.902 406.049 384.479 406.471C386.055 406.893 387.484 407.557 388.765 408.463C390.077 409.377 391.152 410.493 391.992 411.811C392.831 413.129 393.376 414.616 393.627 416.274C393.887 417.9 393.763 419.656 393.258 421.541L393.108 422.097ZM379.454 425.201C380.289 425.424 381.114 425.496 381.931 425.416C382.747 425.337 383.504 425.109 384.202 424.732C384.899 424.356 385.502 423.838 386.01 423.179C386.557 422.497 386.959 421.677 387.216 420.719L387.465 419.792C387.722 418.834 387.78 417.938 387.639 417.106C387.537 416.25 387.279 415.485 386.863 414.811C386.448 414.137 385.906 413.561 385.239 413.084C384.572 412.608 383.821 412.258 382.986 412.034C382.151 411.811 381.326 411.739 380.509 411.819C379.693 411.898 378.936 412.126 378.239 412.503C377.541 412.879 376.919 413.409 376.372 414.09C375.863 414.749 375.481 415.558 375.224 416.516L374.975 417.443C374.718 418.401 374.64 419.308 374.742 420.163C374.883 420.996 375.162 421.75 375.577 422.424C375.992 423.098 376.534 423.674 377.201 424.151C377.868 424.627 378.619 424.977 379.454 425.201ZM417.704 416.059L423.546 417.622L417.377 440.617L411.535 439.054L412.43 435.716L411.596 435.492C409.863 437.877 407.311 438.619 403.942 437.717C402.798 437.411 401.781 436.94 400.892 436.305C400.002 435.669 399.29 434.866 398.755 433.894C398.221 432.923 397.89 431.808 397.764 430.548C397.678 429.266 397.846 427.837 398.268 426.261L402.124 411.889L407.966 413.453L404.434 426.619C403.995 428.257 404.037 429.643 404.561 430.777C405.093 431.881 406.132 432.639 407.678 433.053C409.44 433.524 410.872 433.311 411.974 432.414C413.116 431.493 413.948 430.06 414.47 428.113L417.704 416.059ZM441.656 443.537L440.822 443.314C440.433 443.773 439.988 444.201 439.484 444.596C439.02 444.968 438.444 445.262 437.757 445.475C437.101 445.697 436.342 445.809 435.481 445.81C434.65 445.82 433.678 445.675 432.565 445.378C431.143 444.997 429.88 444.394 428.776 443.569C427.712 442.721 426.848 441.678 426.186 440.441C425.564 439.181 425.184 437.754 425.048 436.161C424.944 434.576 425.144 432.841 425.65 430.956L425.874 430.121C426.371 428.267 427.077 426.683 427.993 425.371C428.939 424.068 430.008 423.045 431.201 422.305C432.433 421.541 433.737 421.062 435.115 420.868C436.523 420.681 437.923 420.774 439.314 421.147C441.169 421.643 442.542 422.391 443.433 423.392C444.332 424.361 444.921 425.562 445.2 426.995L446.034 427.218L446.93 423.881L452.772 425.444L445.086 454.095C444.804 455.146 444.232 455.92 443.369 456.418C442.538 456.924 441.596 457.037 440.545 456.756L425.059 452.611L426.551 447.048L438.514 450.249C439.349 450.473 439.89 450.121 440.139 449.193L441.656 443.537ZM435.959 440.323C437.782 440.811 439.404 440.632 440.824 439.787C442.283 438.918 443.265 437.541 443.771 435.656L443.92 435.1C444.426 433.214 444.26 431.547 443.423 430.097C442.625 428.625 441.315 427.645 439.491 427.157C437.667 426.669 436.03 426.843 434.579 427.681C433.168 428.496 432.201 429.877 431.679 431.824L431.529 432.38C431.007 434.327 431.149 436.021 431.955 437.463C432.8 438.882 434.135 439.835 435.959 440.323ZM458.673 451.669L452.831 450.106L461.537 417.653L467.379 419.217L463.847 432.383L464.682 432.607C465.642 431.373 466.794 430.538 468.136 430.103C469.487 429.636 470.998 429.626 472.667 430.073C473.811 430.379 474.812 430.846 475.671 431.473C476.529 432.1 477.215 432.88 477.727 433.812C478.239 434.744 478.538 435.851 478.625 437.133C478.72 438.384 478.556 439.798 478.133 441.374L474.253 455.839L468.41 454.275L471.918 441.202C472.357 439.563 472.299 438.173 471.744 437.031C471.229 435.866 470.229 435.085 468.745 434.688C467.014 434.225 465.558 434.464 464.378 435.407C463.236 436.327 462.404 437.761 461.882 439.708L458.673 451.669Z" fill="black"/>
</svg>
